<?xml version="1.0" standalone="no"?>
<!DOCTYPE svg PUBLIC "-//W3C//DTD SVG 20010904//EN"
 "http://www.w3.org/TR/2001/REC-SVG-20010904/DTD/svg10.dtd">
<svg version="1.0" xmlns="http://www.w3.org/2000/svg"
 width="512.000000pt" height="512.000000pt" viewBox="0 0 512.000000 512.000000"
 preserveAspectRatio="xMidYMid meet">
<metadata>
Created by potrace 1.14, written by Peter Selinger 2001-2017
</metadata>
<g transform="translate(0.000000,512.000000) scale(0.100000,-0.100000)"
fill="#000000" stroke="none">
<path d="M1 4798 c2 -358 12 -316 23 90 5 201 4 232 -9 232 -13 0 -15 -43 -14
-322z"/>
<path d="M5101 4878 c1 -134 5 -382 8 -553 7 -294 7 -281 9 243 1 362 -1 552
-8 552 -6 0 -10 -87 -9 -242z"/>
<path d="M2766 4625 c-11 -8 -35 -15 -54 -15 -18 0 -62 -12 -98 -26 -64 -25
-64 -25 -91 -6 -33 23 -167 40 -178 22 -4 -6 -26 -20 -49 -31 -24 -11 -53 -33
-65 -49 -12 -17 -36 -36 -54 -44 -18 -7 -52 -32 -76 -56 -24 -23 -59 -46 -77
-52 -42 -11 -74 -44 -74 -75 0 -13 -16 -38 -37 -60 -35 -35 -38 -41 -38 -98 0
-78 -23 -115 -70 -115 -48 0 -61 -21 -43 -67 16 -42 16 -172 0 -213 -12 -31
-2 -95 32 -216 26 -88 76 -228 97 -269 16 -33 -4 -73 -43 -83 -31 -8 -33 -11
-30 -48 4 -46 23 -103 51 -159 12 -21 21 -48 21 -59 0 -25 97 -234 121 -261
11 -12 25 -57 34 -105 9 -47 27 -121 39 -165 13 -44 30 -106 36 -137 13 -56
12 -59 -14 -97 -26 -37 -27 -43 -16 -78 48 -146 210 -349 324 -404 l60 -29 42
47 c46 53 41 52 209 44 104 -5 227 16 320 54 49 19 96 42 105 50 9 8 24 15 33
15 36 0 9 -139 -44 -229 -57 -98 -92 -131 -179 -173 -128 -60 -139 -75 -95
-122 21 -23 22 -27 6 -21 -39 12 -127 -40 -216 -128 -47 -46 -85 -92 -85 -102
0 -21 93 -149 123 -170 13 -9 44 -15 77 -15 62 0 190 -37 198 -58 2 -8 -1 -37
-8 -65 -10 -44 -9 -62 5 -115 23 -89 57 -160 99 -207 63 -70 129 -241 142
-366 6 -63 9 -69 29 -69 21 0 23 4 19 43 -15 147 -29 228 -60 357 -52 208 -57
238 -50 305 4 42 15 75 37 109 26 42 29 54 20 73 -17 37 -14 93 6 100 9 4 45
-3 79 -15 76 -27 86 -27 107 -4 32 36 22 66 -32 96 -76 41 -105 99 -81 161
l10 27 26 -37 c13 -20 44 -57 67 -81 43 -46 76 -105 77 -138 0 -10 7 -41 16
-70 28 -90 33 -109 52 -211 60 -315 91 -652 63 -670 -12 -7 -15 13 -36 220
-16 158 -29 239 -63 385 -14 62 -18 69 -20 42 -2 -19 4 -80 12 -135 9 -56 21
-176 26 -267 6 -91 15 -183 20 -205 5 -22 7 -50 3 -62 -5 -23 -5 -23 117 -23
l122 0 -6 38 c-3 20 -8 62 -11 92 -8 65 -33 209 -39 219 -3 4 -12 45 -20 91
-8 47 -32 164 -52 260 -20 96 -40 198 -46 225 -5 28 -21 83 -35 123 -24 67
-27 72 -55 72 -29 0 -30 1 -23 41 15 88 10 110 -34 151 -47 44 -78 49 -87 14
-3 -13 -17 -35 -31 -48 l-26 -23 8 35 c4 19 8 52 9 72 1 28 10 47 35 72 l34
35 -6 82 c-4 45 -12 89 -19 98 -37 46 -76 147 -84 218 -7 55 5 84 68 163 15
20 39 69 53 110 14 41 36 90 49 110 51 74 101 329 62 314 -8 -3 -18 -20 -21
-37 -10 -44 -92 -167 -112 -167 -9 0 -24 7 -34 16 -16 15 -19 14 -33 -14 -8
-16 -37 -56 -65 -87 -27 -32 -52 -72 -55 -88 -8 -42 -24 -57 -57 -57 -48 0
-77 48 -45 74 8 6 17 25 21 42 6 31 6 31 -47 39 -29 4 -69 8 -88 9 -31 1 -35
4 -38 30 -2 16 2 32 9 37 15 9 39 -7 39 -27 0 -8 2 -14 4 -14 2 0 11 -3 19 -6
9 -3 26 10 46 37 34 47 30 63 -19 74 -33 7 -58 32 -44 44 30 26 144 64 194 65
l55 1 0 -40 c0 -33 5 -42 34 -62 19 -13 38 -20 42 -16 4 5 10 28 14 53 9 61
-13 81 -100 91 -35 5 -78 15 -96 24 -23 12 -44 15 -79 10 -45 -6 -49 -5 -70
25 -16 23 -19 34 -11 44 8 10 8 33 1 82 -5 38 -10 96 -10 129 0 34 -11 100
-26 152 -29 102 -27 128 8 118 28 -9 118 -94 118 -112 0 -7 5 -13 10 -13 12 0
13 25 1 66 -5 17 -6 43 -4 58 l5 26 31 -30 c46 -45 96 -44 144 2 29 28 32 35
26 75 -4 33 -2 48 11 62 17 18 17 20 -2 30 -11 6 -23 18 -26 27 -12 32 17 46
110 51 49 2 94 6 101 8 16 5 -26 81 -66 119 -24 23 -35 27 -58 22 -15 -4 -71
-15 -123 -25 -52 -10 -105 -23 -117 -29 -12 -7 -40 -12 -63 -12 -38 0 -73 -12
-128 -44 -20 -11 -31 -11 -66 -1 -52 16 -128 54 -138 69 -15 23 -21 137 -8
161 7 12 9 32 6 43 -4 12 -2 39 5 61 9 32 9 44 0 55 -7 8 -15 54 -17 103 -3
48 -7 97 -9 109 -5 21 29 61 71 83 30 14 248 34 304 27 52 -7 144 -39 167 -58
20 -17 123 -152 161 -211 16 -26 32 -44 36 -40 13 14 5 105 -13 141 -11 22
-17 49 -14 63 3 18 -1 33 -14 45 -27 26 -48 111 -61 249 -4 39 -11 75 -15 82
-4 6 -24 17 -45 24 -20 6 -55 28 -78 49 -27 25 -54 39 -82 44 -33 5 -45 12
-52 31 -12 31 -51 41 -100 25 -36 -12 -40 -11 -94 24 -63 40 -72 42 -100 21z
m654 -1165 c0 -5 -9 -10 -20 -10 -11 0 -20 5 -20 10 0 6 9 10 20 10 11 0 20
-4 20 -10z m-1420 -151 c0 -10 -7 -19 -15 -19 -15 0 -21 31 -9 43 11 10 24 -3
24 -24z m998 -72 c6 -28 -5 -47 -23 -41 -9 4 -15 18 -15 36 0 23 4 29 17 26
10 -2 19 -11 21 -21z m-994 -119 c9 -53 2 -148 -9 -137 -14 14 -20 169 -7 169
6 0 13 -15 16 -32z m3 -200 c-3 -8 -6 -5 -6 6 -1 11 2 17 5 13 3 -3 4 -12 1
-19z m979 -1720 c6 -28 -4 -113 -12 -105 -3 2 -9 29 -14 58 -5 30 -12 65 -16
77 -6 22 -5 23 14 11 12 -7 24 -26 28 -41z m-85 22 c21 -12 25 -50 7 -68 -28
-28 -98 -1 -98 38 0 36 48 52 91 30z m93 -202 c65 -50 116 -101 116 -116 0
-11 -19 -13 -100 -9 -56 2 -105 8 -109 13 -5 5 -14 26 -21 48 -13 40 -5 55 27
56 7 0 17 9 23 20 14 26 15 26 64 -12z"/>
<path d="M3560 3365 c19 -23 4 -45 -29 -45 -32 0 -49 -14 -31 -25 6 -4 25 -1
42 6 27 11 32 10 44 -6 37 -50 -1 -195 -69 -265 -16 -17 -27 -33 -23 -37 10
-11 65 48 86 92 38 83 50 114 50 129 0 9 7 28 16 41 26 40 11 93 -31 111 -47
19 -72 19 -55 -1z"/>
<path d="M3360 3276 c0 -7 7 -19 15 -26 12 -10 16 -9 21 5 4 10 1 21 -7 26
-20 12 -29 11 -29 -5z"/>
<path d="M3102 3005 c25 -66 70 -95 146 -95 73 0 83 16 15 23 -72 8 -126 29
-148 59 -10 13 -15 19 -13 13z"/>
<path d="M3450 2970 c0 -5 7 -7 15 -4 8 4 15 8 15 10 0 2 -7 4 -15 4 -8 0 -15
-4 -15 -10z"/>
<path d="M3398 2943 c7 -3 16 -2 19 1 4 3 -2 6 -13 5 -11 0 -14 -3 -6 -6z"/>
<path d="M2022 2084 c-45 -32 -57 -71 -57 -194 0 -95 -3 -115 -15 -118 -11 -2
-20 12 -29 43 -7 25 -17 48 -22 51 -5 3 -26 -10 -46 -30 -78 -71 -120 -103
-178 -136 -189 -105 -591 -309 -700 -354 -49 -21 -133 -60 -185 -86 -91 -47
-258 -126 -347 -165 -24 -10 -43 -22 -43 -27 0 -4 -7 -8 -15 -8 -28 0 -92 -38
-120 -72 -42 -50 -54 -87 -64 -205 -9 -98 -58 -381 -96 -558 -8 -38 -19 -95
-25 -125 -5 -30 -12 -65 -16 -77 l-6 -23 422 0 c232 0 420 3 418 8 -2 4 -13
27 -25 52 -11 25 -41 88 -65 140 -25 52 -53 120 -63 150 -40 128 -267 609
-313 663 -27 30 -2 18 50 -26 28 -23 58 -58 67 -77 35 -77 101 -149 101 -110
0 6 14 10 30 10 30 0 42 21 20 35 -12 8 -13 25 -1 43 7 12 12 12 30 0 16 -9
25 -10 39 -2 25 16 26 41 2 49 -26 8 -21 31 6 27 16 -2 21 7 31 59 12 63 26
82 54 74 8 -3 32 10 55 30 43 39 112 77 125 69 5 -2 20 13 34 36 14 22 29 40
33 40 4 0 26 17 48 39 31 29 51 40 85 44 73 9 129 24 147 40 9 8 37 25 62 37
41 21 50 22 101 11 30 -6 67 -11 82 -11 37 0 50 -37 44 -115 -6 -75 -4 -81 39
-95 53 -18 67 -1 62 74 -3 60 -3 61 22 58 14 -1 42 -19 62 -40 20 -20 55 -55
77 -76 41 -40 44 -56 10 -56 -31 0 -22 -18 16 -35 25 -10 40 -25 50 -50 15
-33 35 -48 35 -24 0 7 11 9 30 6 23 -5 33 -2 45 16 15 21 17 21 29 5 7 -10 22
-18 32 -18 10 0 32 -7 47 -15 24 -12 29 -12 33 0 8 19 78 45 124 45 29 0 48
-8 73 -30 19 -16 39 -30 45 -30 10 0 72 93 72 109 0 5 -7 14 -16 22 -8 7 -24
29 -35 48 -11 20 -58 88 -105 151 -105 143 -255 368 -319 478 -44 76 -48 89
-51 159 -2 41 -5 77 -7 79 -2 2 -13 -3 -25 -12z"/>
<path d="M3732 1513 c5 -25 28 -28 28 -4 0 12 -6 21 -16 21 -9 0 -14 -7 -12
-17z"/>
<path d="M2510 1486 c0 -9 5 -16 10 -16 6 0 10 4 10 9 0 6 -4 13 -10 16 -5 3
-10 -1 -10 -9z"/>
<path d="M2560 1411 c0 -22 25 -39 38 -27 8 8 -10 38 -26 44 -7 2 -12 -6 -12
-17z"/>
<path d="M2615 1339 c4 -13 9 -41 12 -61 6 -42 21 -48 48 -18 17 19 17 21 -25
61 -36 35 -42 38 -35 18z"/>
<path d="M1497 1243 c-16 -15 -4 -50 40 -122 75 -123 177 -294 381 -638 17
-30 32 -61 32 -67 0 -7 6 -20 13 -30 12 -16 17 -16 34 -6 28 18 64 -9 135
-102 68 -89 168 -246 168 -265 0 -9 13 -13 40 -13 22 0 40 5 40 10 0 11 -142
228 -223 340 -26 36 -90 128 -142 205 -52 77 -111 163 -131 190 -38 53 -247
352 -301 433 -18 26 -37 53 -43 60 -12 13 -33 16 -43 5z"/>
<path d="M1860 1190 c8 -5 24 -9 35 -9 l20 0 -20 9 c-11 5 -27 9 -35 9 -13 1
-13 0 0 -9z"/>
<path d="M4542 1130 c0 -14 2 -19 5 -12 2 6 2 18 0 25 -3 6 -5 1 -5 -13z"/>
<path d="M2326 983 c-12 -12 -5 -23 14 -23 11 0 20 4 20 9 0 11 -26 22 -34 14z"/>
<path d="M765 840 c3 -5 13 -10 21 -10 8 0 14 5 14 10 0 6 -9 10 -21 10 -11 0
-17 -4 -14 -10z"/>
<path d="M1250 793 c-22 -55 -35 -72 -53 -77 -14 -3 -18 -10 -12 -23 4 -10 11
-35 15 -56 4 -21 13 -44 19 -50 8 -8 4 -20 -15 -45 -22 -29 -25 -37 -15 -56 9
-17 8 -31 -4 -65 -8 -24 -15 -54 -15 -68 0 -13 -9 -41 -20 -63 -11 -22 -20
-41 -20 -42 0 -2 18 -4 40 -5 35 -2 42 2 55 26 9 18 12 42 8 65 -4 25 -1 42 9
54 26 29 98 170 98 192 0 11 -6 20 -12 20 -7 0 -20 4 -28 10 -12 7 -11 12 5
30 16 17 17 25 7 40 -6 11 -9 26 -6 35 8 21 -18 105 -32 105 -7 0 -17 -12 -24
-27z m-13 -109 c-3 -3 -12 -4 -19 -1 -8 3 -5 6 6 6 11 1 17 -2 13 -5z"/>
<path d="M2415 801 c-4 -8 -1 -19 8 -28 19 -20 30 -1 13 22 -10 14 -15 15 -21
6z"/>
<path d="M2650 749 c7 -30 49 -148 79 -222 20 -51 104 -239 170 -382 21 -44
44 -95 52 -112 8 -18 20 -33 28 -33 9 0 11 6 6 18 -5 9 -31 82 -60 162 -55
153 -79 206 -194 440 -76 154 -95 183 -81 129z"/>
<path d="M5112 695 c0 -16 2 -22 5 -12 2 9 2 23 0 30 -3 6 -5 -1 -5 -18z"/>
<path d="M710 662 c0 -16 6 -20 32 -19 34 2 53 27 20 27 -11 0 -27 3 -36 6
-11 4 -16 0 -16 -14z"/>
<path d="M764 559 c-3 -6 -1 -16 5 -22 8 -8 11 -5 11 11 0 24 -5 28 -16 11z"/>
<path d="M783 504 c-4 -12 16 -76 62 -194 25 -65 56 -154 79 -230 l23 -75 77
-3 c70 -3 94 6 66 23 -5 3 -10 16 -10 29 0 12 -4 26 -9 32 -8 8 -17 54 -24
124 -1 14 -8 35 -14 47 -7 12 -10 34 -7 52 9 42 -23 107 -58 120 -20 7 -25 14
-21 29 9 37 -77 73 -91 37 -8 -21 -23 -19 -30 3 -7 21 -35 25 -43 6z"/>
<path d="M1466 501 c-9 -13 -24 -173 -31 -316 -3 -72 -8 -142 -11 -158 l-6
-27 176 0 c97 0 176 3 176 7 0 3 -15 34 -34 67 -19 34 -54 108 -79 166 -68
159 -108 231 -142 251 -34 21 -41 23 -49 10z"/>
<path d="M5113 360 c0 -25 2 -35 4 -22 2 12 2 32 0 45 -2 12 -4 2 -4 -23z"/>
<path d="M4519 368 c-7 -13 -15 -60 -17 -106 -4 -68 -7 -80 -18 -71 -16 13
-20 5 -27 -59 -4 -28 -13 -49 -29 -61 -29 -25 -132 -54 -158 -46 -23 7 -60 -2
-60 -16 0 -5 45 -9 103 -8 l102 0 33 42 c18 23 48 59 65 81 37 45 44 68 46
156 1 70 -6 110 -20 110 -4 0 -14 -10 -20 -22z"/>
<path d="M5111 254 c0 -11 3 -14 6 -6 3 7 2 16 -1 19 -3 4 -6 -2 -5 -13z"/>
<path d="M2015 231 c-4 -7 -4 -29 0 -49 11 -62 55 -93 55 -39 0 31 -45 103
-55 88z"/>
<path d="M1130 200 c0 -17 36 -30 48 -18 19 19 14 28 -18 28 -16 0 -30 -4 -30
-10z"/>
<path d="M5110 95 c-3 -50 -4 -92 -3 -94 10 -15 13 18 11 95 l-3 89 -5 -90z"/>
<path d="M2067 23 c-16 -15 -5 -23 31 -23 35 1 36 2 18 15 -21 16 -39 19 -49
8z"/>
<path d="M4516 21 c-4 -7 -5 -15 -2 -18 9 -9 19 4 14 18 -4 11 -6 11 -12 0z"/>
</g>
</svg>
